<svg width="64" height="64" fill="none" xmlns="http://www.w3.org/2000/svg"><g clip-path="url(#clip0)" fill="#504B75"><path d="M32 44.898a6.356 6.356 0 00-6.349 6.348c0 3.5 2.848 6.348 6.349 6.348 3.5 0 6.348-2.848 6.348-6.348S35.5 44.897 32 44.897zm0 10.691a4.349 4.349 0 01-4.344-4.343A4.349 4.349 0 0132 46.902a4.349 4.349 0 014.343 4.344A4.349 4.349 0 0132 55.589zM18.439 37.684a1.003 1.003 0 001.417 1.418c6.696-6.696 17.592-6.696 24.288 0a1 1 0 001.417 0 1.002 1.002 0 000-1.417c-7.477-7.478-19.645-7.478-27.122 0z"/><path d="M32 19.236c-8.55 0-16.588 3.33-22.634 9.375a1.002 1.002 0 001.417 1.418C16.45 24.362 23.985 21.241 32 21.241c8.014 0 15.549 3.12 21.216 8.788a1 1 0 001.418 0 1.002 1.002 0 000-1.418C48.588 22.566 40.55 19.236 32 19.236z"/><path d="M63.706 19.54C55.237 11.07 43.977 6.405 32 6.405S8.763 11.07.294 19.54a1.002 1.002 0 001.417 1.417C9.801 12.867 20.558 8.411 32 8.411c11.441 0 22.198 4.456 30.289 12.546a1 1 0 001.417 0 1.002 1.002 0 000-1.418z"/></g><defs><clipPath id="clip0"><path fill="#fff" d="M0 0h64v64H0z"/></clipPath></defs></svg>