<svg width="70" height="70" fill="none" xmlns="http://www.w3.org/2000/svg"><g clip-path="url(#clip0)" fill="#504B75"><path d="M66.374 13.185c-9.951-1.477-9.951-1.477-16.37-7.33-8.941-8.16-22.24-7.747-30.938.963-3.604 3.61-7.679 5.512-12.825 5.984-.537.048-1.071.135-1.683.235-.29.047-.597.097-.934.147a.852.852 0 00-.72.932c.197 1.857.373 3.702.548 5.537.46 4.798.89 9.33 1.65 13.922.33 1.995 1.62 4.038 3.788 6.03 2.038 2.195 7.053 3.194 13.204 3.607L14.55 67.206A2.114 2.114 0 0016.546 70c.318 0 .634-.073.927-.216.508-.25.887-.678 1.066-1.199l5.205-14.302h.003a.591.591 0 00.257-.058l11.374-5.428 10.581 5.05c.049.023.101.024.153.034l5.347 14.695a2.114 2.114 0 002.681 1.31 2.112 2.112 0 001.318-2.666l-7.543-23.98c3.534-.15 7.09-.603 10.542-2.04 3.821-1.591 5.898-3.907 6.35-7.082.663-4.656 1.166-9.435 1.652-14.057.207-1.967.415-3.946.637-5.937a.856.856 0 00-.722-.938zM17.412 68.188a.918.918 0 01-1.164.569h-.001a.92.92 0 01-.564-1.18l7.638-24.294c.774.042 1.557.079 2.358.104.092.074.19.145.26.226.053.061.121.15.17.245a.58.58 0 00.028.361l-8.725 23.969zm6.882-15.423l2.87-7.885 6.828 3.258-9.698 4.627zm11.082-5.287l-8.094-3.862a1.903 1.903 0 00-.074-.188c1.297.028 2.616.041 3.95.041 2.36 0 4.752-.035 7.105-.084 1.332-.028 2.497-.051 3.427-.056l1.143-.004a1.676 1.676 0 00-.18.68l-7.277 3.473zm1.384.66l6.185-2.951 2.6 7.143-8.785-4.192zm17.56 19.454a.919.919 0 01-.57 1.166.924.924 0 01-1.17-.58L43.846 44.17c-.067-.194.105-.432.213-.558a2.03 2.03 0 01.342-.296 119.64 119.64 0 002.275-.03l7.645 24.305zm10.443-47.71c-.507 4.82-.986 9.37-1.644 13.995-.367 2.564-2.057 4.39-5.32 5.748-4.736 1.972-9.608 1.982-14.768 1.994l-1.35.003c-.937.006-2.111.03-3.454.058-7.994.16-24.618.506-28.137-3.282-1.929-1.775-3.042-3.49-3.308-5.099-.75-4.537-1.18-9.04-1.635-13.808-.15-1.575-.301-3.157-.465-4.75.051-.007.102-.016.151-.024.569-.093 1.064-.175 1.564-.22a25.06 25.06 0 003.256-.525c.08.731.161 1.497.25 2.325.16 1.507.335 3.145.518 4.8a.597.597 0 00.592.531c.022 0 .044-.002.067-.004a.596.596 0 00.527-.658c-.184-1.654-.358-3.29-.518-4.794l-.267-2.492c3.57-1.01 6.647-2.849 9.452-5.659 8.17-8.184 20.193-8.567 28.585-.91 4.763 4.347 6.254 5.654 10.372 6.592-.066.598-.131 1.228-.196 1.893-7.165-1.08-8.337-1.43-12.75-5.379a.425.425 0 10-.568.634c4.517 4.042 5.803 4.473 13.238 5.595l-.072.76a.596.596 0 00.541.646l.055.002a.596.596 0 00.592-.543c.108-1.209.218-2.33.334-3.361 1.332.257 2.911.503 4.907.8-.19 1.72-.37 3.43-.549 5.132z"/><path d="M17.395 34.182c.33 0 .595-.258.595-.588.29-.863 6.222-2.402 17.009-2.402 10.788 0 16.719 1.54 17.006 2.385a.596.596 0 101.193 0c0-3.536-17.456-3.578-18.2-3.578-.743 0-18.199.042-18.199 3.578 0 .33.267.605.596.605z"/><path d="M59.228 20.134a.596.596 0 00-.644.543l-.014.167c-.327 3.873-.664 7.876-1.092 10.748-.29 1.944-1.634 3.33-4.23 4.364-3.75 1.493-7.78 1.5-11.677 1.506l-1.061.003c-.738.004-1.665.023-2.725.043-6.305.128-19.435.384-22.231-2.49-1.527-1.342-2.409-2.641-2.62-3.86a57.385 57.385 0 01-.216-1.333.595.595 0 10-1.18.178c.072.48.146.934.219 1.359.259 1.495 1.272 3.026 2.976 4.52 2.325 2.394 9.647 2.885 17.463 2.885 1.863 0 3.755-.029 5.612-.065 1.053-.02 1.973-.04 2.707-.043l1.058-.003c4.009-.007 8.155-.015 12.117-1.592 2.988-1.19 4.613-2.922 4.966-5.295.434-2.91.774-6.934 1.1-10.824l.015-.168a.595.595 0 00-.543-.643zM40.306 6.49a22.13 22.13 0 013.444 2.58.422.422 0 00.6-.028.423.423 0 00-.028-.602 22.82 22.82 0 00-3.575-2.677.425.425 0 10-.44.727zm9.277 50.257a.426.426 0 00.801-.293l-.83-2.262a.426.426 0 10-.8.294l.83 2.261zM45.72 44.986a.427.427 0 00-.253.547l2.177 5.934a.426.426 0 00.801-.294l-2.177-5.934a.428.428 0 00-.547-.253z"/></g><defs><clipPath id="clip0"><path fill="#fff" d="M0 0h70v70H0z"/></clipPath></defs></svg>