<svg width="93" height="56" fill="none" xmlns="http://www.w3.org/2000/svg"><path d="M91.126 32.507c-.01-.037-.024-.075-.031-.112-.092.001-.18.007-.27.008a2.625 2.625 0 00-.731-.114h-1.801V13.18c0-7.12-4.313-12.913-9.614-12.913H14.323C9.022.268 4.709 6.06 4.709 13.18v19.106H2.907c-1.602 0-2.907 1.435-2.907 3.2v13.545c0 1.765 1.303 3.2 2.907 3.2h1.769c.325 1.736 1.533 3.032 2.98 3.032h4.527c1.445 0 2.652-1.297 2.98-3.032h62.675c.327 1.736 1.534 3.032 2.98 3.032h4.527c1.446 0 2.652-1.297 2.978-3.032h1.77c1.602 0 2.907-1.435 2.907-3.2V35.487c-.001-1.362-.782-2.52-1.874-2.98zm-1.033 1.114c.574 0 1.074.374 1.347.924-.028-.009-.051-.019-.082-.028-.87-.241-1.934-.28-2.86-.299-3.74-.073-7.348.053-10.713.376-.503.047-1.003.1-1.504.152-1.873.197-3.812.405-5.928.358-2.52-.052-5.63-.578-6.846-1.483h7.021c.369.023.736.035 1.1.035.329 0 .65-.02.975-.035h17.49zM7.667 32.287c.162-3.95 2.721-7.102 5.855-7.102H79.48c3.133 0 5.692 3.152 5.855 7.102H7.667zm31.25 6.711c-.092.528-.218 1.076-.644 1.471-.528.49-1.241.518-1.738.463-1.03-.12-2.105-.735-2.612-1.492-.432-.645-.666-1.38-.892-2.09-.231-.726-.47-1.478-.921-2.155-.43-.647-1.018-1.155-1.684-1.574h8.63c.204 1.79.173 3.59-.14 5.377zM19.629 24.423V10.83c0-.377.148-.722.408-.945a.876.876 0 01.697-.213c2.318.345 6.792.923 10.7.923 3.909 0 8.383-.578 10.701-.923a.868.868 0 01.697.213c.26.223.408.566.408.944v13.594H19.629zm30.133 0v-14.14c0-.224.09-.434.242-.564a.486.486 0 01.388-.117c1.943.299 6.921.993 11.176.993 4.254 0 9.233-.696 11.175-.994a.468.468 0 01.389.118c.151.13.242.341.242.564v14.14H49.762zM14.322 1.602h64.354c4.565 0 8.277 5.194 8.277 11.579v19.106h-.856c-.167-4.37-3.068-7.864-6.619-7.864h-5.342v-14.14c0-.45-.186-.867-.509-1.143a1.254 1.254 0 00-1-.293c-1.926.296-6.86.985-11.06.985-4.202 0-9.134-.69-11.06-.985a1.232 1.232 0 00-1 .293 1.496 1.496 0 00-.508 1.143v14.14h-4.996V10.83c0-.599-.245-1.154-.672-1.522a1.617 1.617 0 00-1.308-.39c-2.298.341-6.73.914-10.589.914s-8.291-.573-10.588-.914a1.624 1.624 0 00-1.308.39 1.995 1.995 0 00-.672 1.521v13.594h-5.344c-3.551 0-6.451 3.494-6.619 7.864h-.856V13.181h-.002c0-6.385 3.713-11.579 8.277-11.579zM2.907 33.622h8.744c-.216.062-.43.123-.646.188-1.257.37-2.558.75-3.893.917-1.958.243-3.75-.066-4.922-.847-.01-.007-.018-.016-.029-.023.224-.145.476-.234.746-.234zm9.276 20.308H7.655c-.726 0-1.36-.718-1.616-1.698h7.76c-.254.98-.89 1.698-1.616 1.698zm27.536-3.033h-2.3a21.33 21.33 0 011.708-.937c.235-.11.403-.14.5-.082.059.034.085.102.096.246.019.257.002.516-.004.773zm5.051-.001h-4.747c.005-.266.024-.53.003-.795-.008-.105-.026-.355-.244-.485-.288-.171-.664.01-.787.07-.75.359-1.46.777-2.155 1.21h-6.968c2.667-1.349 5.168-2.913 7.425-4.702 1.315-1.041 2.854-2.117 4.45-1.732.904.219 1.638.9 2.185 2.02a8.618 8.618 0 01.838 4.414zm.301.004c.106-1.548-.16-3.102-.866-4.548-.59-1.205-1.393-1.94-2.388-2.181-1.734-.42-3.34.703-4.71 1.788-2.4 1.901-5.08 3.543-7.942 4.941H5.919v-.033c-.084.023-.173.019-.261.033h-.72c-.12-.018-.242-.021-.357-.059v.06H2.907c-.865-.004-1.57-.84-1.57-1.869v-4.578c4.94.011 9.792-.114 14.495-.419l.126-.008c1.734-.112 3.526-.232 5.376.047 1.636.245 2.905.872 3.02 1.281.014.054.017.124-.094.218-.265.22-.91.353-1.496.461-5.616 1.038-12.615 1.362-19.711.912a.149.149 0 00-.163.142.154.154 0 00.143.163 99.1 99.1 0 006.222.198c4.908 0 9.582-.378 13.562-1.114.651-.121 1.315-.26 1.636-.528.179-.148.246-.338.192-.532-.186-.662-1.808-1.283-3.27-1.501-1.88-.28-3.691-.163-5.44-.05l-.126.008c-4.698.305-9.542.428-14.476.418v-1.544c.37.035.745.076 1.098.09 3.732.15 7.34.098 10.72-.156.505-.038 1.007-.08 1.508-.122 1.878-.159 3.817-.324 5.938-.238 2.579.105 5.776.718 6.895 1.687.42.365.455.723.437.994-.11 1.786-2.887 3.28-7.25 3.898-4.42.627-10.354.325-15.485-.79a.153.153 0 00-.181.116.153.153 0 00.116.18c3.383.736 7.113 1.12 10.537 1.12 1.802 0 3.52-.107 5.056-.325 4.514-.64 7.393-2.242 7.513-4.182.018-.313-.016-.785-.543-1.242-1.172-1.017-4.45-1.656-7.082-1.762-2.133-.086-4.087.08-5.975.239-.501.043-1 .085-1.505.122-3.368.253-6.964.306-10.686.157-.373-.015-.74-.052-1.11-.085V38.37c.555-.027 1.111-.057 1.66-.088l15.906-.907c2.18-.124 4.647-.266 6.884.256 2.419.564 4.27 1.953 4.72 3.538a.152.152 0 00.189.104.151.151 0 00.105-.188c-.58-2.05-2.935-3.283-4.945-3.752-2.281-.532-4.774-.388-6.97-.263l-15.906.908c-.545.031-1.093.059-1.644.087v-2.578c0-.582.23-1.096.582-1.438.035.027.062.059.101.083 1.688 1.126 3.939 1.046 5.13.896 1.359-.168 2.67-.553 3.94-.927a81.29 81.29 0 011.146-.331c.201-.056.406-.1.609-.15h16.992c.812.435 1.52.997 2.016 1.742.426.643.658 1.372.884 2.08.234.73.473 1.486.93 2.166.554.828 1.719 1.497 2.83 1.627.137.015.271.023.4.023.637 0 1.178-.193 1.583-.567.497-.46.641-1.089.738-1.64a19.12 19.12 0 00.148-5.43h4.46c-.762 1.038-1.315 2.172-1.615 3.361a.153.153 0 10.297.075c.308-1.222.901-2.381 1.712-3.435h3.727c-1.584 1.514-1.69 3.709-1.542 5.873.164 2.414.416 4.854.748 7.253a31.47 31.47 0 00.843 4.151h-2.92zm40.274 3.03h-4.528c-.725 0-1.352-.719-1.605-1.698h7.75c-.254.98-.89 1.698-1.617 1.698zm4.748-3.033h-1.188a4.371 4.371 0 012.527-.905c-.275.54-.77.905-1.34.905zm1.57-12.487c-1.203.06-2.403.14-3.59.232L72.2 39.871c-2.281.179-4.637.361-6.89-.115-2.439-.514-4.335-1.865-4.834-3.44a.151.151 0 00-.191-.1.151.151 0 00-.1.191c.647 2.036 3.04 3.22 5.062 3.647 2.296.486 4.783.292 6.977.122l15.875-1.23c1.178-.093 2.37-.172 3.566-.234v3.835c-1.528-.39-3.104-.313-4.057-.2-1.495.182-2.929.58-4.314.964-.418.117-.837.232-1.257.342a50.645 50.645 0 01-10.948 1.605c-2.48.09-8.529-.014-10.925-3.033-.508-.64-.805-1.369-1.091-2.075-.297-.729-.604-1.484-1.145-2.16-.667-.835-2.005-1.492-3.253-1.6-.876-.075-1.605.12-2.106.562-.527.466-.655 1.1-.734 1.658a17.543 17.543 0 00.531 7.328c.023.08.108.124.189.105a.153.153 0 00.105-.188 17.278 17.278 0 01-.523-7.202c.075-.526.185-1.074.634-1.47.553-.49 1.328-.536 1.876-.488 1.172.1 2.422.712 3.042 1.485.512.643.81 1.377 1.1 2.087.295.726.599 1.475 1.135 2.15 2.393 3.015 8.025 3.267 11.176 3.147a51.065 51.065 0 0012.272-1.958c1.375-.381 2.796-.775 4.27-.953 1.474-.18 2.852-.074 4.02.247v6.131c0 .228-.04.443-.103.646-1.139-.01-2.391.476-3.134 1.22H48.319a30.669 30.669 0 01-.864-4.194 103.279 103.279 0 01-.746-7.231c-.137-2.02-.137-4.3 1.611-5.8.022-.018.048-.033.07-.052h14.656c.052.057.095.114.164.17 1.202.99 4.5 1.565 7.136 1.618 2.142.043 4.083-.161 5.967-.36.5-.053 1-.105 1.5-.152 3.354-.32 6.95-.444 10.678-.374.909.019 1.947.058 2.785.29.113.03.208.064.303.097.05.183.085.375.085.578v2.922z" fill="#504B75"/><path d="M56.645 49.242a.157.157 0 00.213.038.154.154 0 00.038-.213c-1.026-1.451-1.66-3.096-1.83-4.757-.04-.381.037-.607.238-.71.526-.272 1.134.49 1.249.647 2.179 2.952 6.404 5.102 11.592 5.898 1.974.302 3.97.413 5.969.413 2.703 0 5.409-.201 8.061-.398a.154.154 0 00.141-.164c-.007-.084-.089-.143-.164-.141-4.598.344-9.35.697-13.962-.012-5.108-.782-9.261-2.889-11.392-5.776-.41-.552-1.05-1.031-1.635-.738-.482.246-.423.824-.403 1.014.179 1.711.83 3.405 1.885 4.9z" fill="#504B75"/></svg>