<svg width="93" height="87" fill="none" xmlns="http://www.w3.org/2000/svg"><path d="M92.522 81.502c-.633-1.064-1.793-1.78-2.452-1.55-.02.008-.04-.002-.062-.01.693-1.225.12-2.973-.829-3.915-.814-.804-1.807-.984-2.6-.475-.011-.007-.041-.047-.033-.108.297-2.238-.703-3.064-1.326-3.358-1.057-.497-2.548-.177-3.574.744a.331.331 0 01-.013-.068c-.104-1.763-1.032-2.575-1.864-2.748-.911-.192-1.832.285-2.459 1.258a12.609 12.609 0 01-.219-.412c-.121-.236-.228-.441-.32-.56a4.106 4.106 0 00-.834-.795V15.617h1.369l.597-.597v-3.586l-.597-.597h-5.835a.663.663 0 00.077-.3V7.893a.682.682 0 00-.683-.681h-2.353V1.405a.682.682 0 00-.683-.682h-3.1a.682.682 0 00-.683.682v9.131c0 .11.031.208.077.3h-1.412a.661.661 0 00.077-.3V7.982a.68.68 0 00-.458-.643.657.657 0 00.032-.208V4.744a.696.696 0 00-.049-.255.683.683 0 00.256-.532V1.404a.682.682 0 00-.683-.682h-6.29a.682.682 0 00-.683.682v9.13c0 .11.03.209.077.3h-3.325a.663.663 0 00.077-.3V4.678h1.565a.682.682 0 00.683-.682V1.402a.682.682 0 00-.683-.681h-7.57a.682.682 0 00-.682.681v2.593c0 .377.306.682.683.682h1.565v5.858c0 .109.031.208.077.3h-5.454c.486-.24.942-.519 1.329-.878a5.226 5.226 0 001.234-1.772 5.722 5.722 0 00.443-2.268c0-.822-.15-1.58-.446-2.254a5.049 5.049 0 00-1.238-1.734 5.52 5.52 0 00-1.842-1.09 6.577 6.577 0 00-2.247-.376c-.8 0-1.556.127-2.248.376a5.43 5.43 0 00-1.835 1.091 5.103 5.103 0 00-1.232 1.732c-.294.672-.444 1.43-.444 2.254 0 .822.148 1.584.442 2.267a5.228 5.228 0 001.226 1.769c.382.36.838.64 1.326.88H32.05a.663.663 0 00.077-.3V1.401a.682.682 0 00-.683-.682h-3.087a.682.682 0 00-.683.682V3.82h-1.14V1.406a.682.682 0 00-.683-.681H22.79a.682.682 0 00-.682.681v9.131c0 .11.03.208.077.3H14.97l-.595.597v3.586l.597.597h1.37v54.628c-.038.021-.084.027-.113.063-.092.12-.197.324-.32.56-.057.111-.14.273-.22.41-.626-.971-1.548-1.449-2.458-1.257-.834.173-1.76.985-1.864 2.745a.256.256 0 01-.013.069c-1.026-.92-2.514-1.246-3.574-.744-.623.293-1.623 1.12-1.326 3.357.005.046-.01.08.003.099-.845-.496-1.832-.313-2.638.484-.947.941-1.52 2.686-.825 3.913a.196.196 0 01-.045.014c-.683-.242-1.838.48-2.47 1.544-.448.75-1.223 2.73 1.24 4.886l.226.085h89.112l.225-.085c2.462-2.156 1.687-4.136 1.24-4.886zM67.83 1.406v6.487h3.036v2.644H64.73v-9.13h3.1zm-12.237 0h6.293V3.96h-3.398v.787h3.191v2.386h-3.191v.852h3.616v2.554h-6.51V1.406zM45.738 4V1.406h7.569V4h-2.248v6.54h-3.073V4h-2.248zm-10.2 5.463A4.568 4.568 0 0134.47 7.92a5.023 5.023 0 01-.386-1.999c0-.731.128-1.391.386-1.98a4.389 4.389 0 011.067-1.502c.451-.412.988-.73 1.607-.953a5.89 5.89 0 012.015-.336 5.89 5.89 0 012.016.336c.62.223 1.158.541 1.615.953.456.413.814.914 1.07 1.502.259.59.389 1.249.389 1.98 0 .73-.13 1.397-.389 2a4.52 4.52 0 01-1.07 1.54 4.844 4.844 0 01-1.615.987 5.693 5.693 0 01-2.016.349 5.705 5.705 0 01-2.015-.349 4.747 4.747 0 01-1.607-.986zM22.79 1.406h3.063v3.095h2.506V1.406h3.087v9.131h-3.075V7.07h-2.506v3.468H22.79v-9.13zm4.977 9.432h-1.295a.666.666 0 00.077-.3V7.753h1.141v2.787c0 .11.031.208.077.3zm-12.199 3.587V12.03h61.14v2.395h-61.14zM53.57 53.45H38.71l-.598.596v27.971H17.537v-66.4h57.206v66.4H54.167v-27.97l-.598-.597zm-.597 1.193v27.118H39.306V54.643h13.666zM13.62 82.734v3.068H2.075c-1.896-1.725-1.45-3.214-1.008-3.955.552-.926 1.437-1.318 1.655-1.25.277.098.665-.018.857-.25a.574.574 0 00.036-.689c-.56-.916-.096-2.367.69-3.148.344-.34 1.035-.842 1.83-.368a.618.618 0 00.663-.02.787.787 0 00.337-.762c-.179-1.343.157-2.287.943-2.657.87-.416 2.16-.072 2.99.797a.44.44 0 00.476.111c.29-.105.49-.498.51-.802.067-1.156.574-1.97 1.323-2.124.697-.149 1.44.333 1.914 1.257a.418.418 0 00.373.236c.265 0 .445-.235.681-.668v10.627h-2.126l-.598.597zm63.844 2.548H14.813v-1.954h62.651v1.954zm13.462.517H78.659v-3.068l-.597-.596h-2.127V70.412c.1.097.204.188.294.303.065.083.153.261.252.454.338.66.53 1 .859 1a.42.42 0 00.373-.236c.474-.923 1.22-1.4 1.914-1.256.747.155 1.254.969 1.323 2.127.02.302.22.695.51.802.17.062.351.019.477-.112.829-.868 2.118-1.212 2.988-.797.787.37 1.122 1.315.944 2.66a.784.784 0 00.337.76.613.613 0 00.665.02c.789-.47 1.484.028 1.826.37.786.78 1.251 2.232.69 3.15a.57.57 0 00.037.687c.193.233.584.35.855.25.233-.07 1.105.327 1.656 1.252.44.741.887 2.231-1.01 3.953z" fill="#504B75"/><path d="M22.393 36.975l-.511.51v12.287l.51.51H33.11l.511-.51V37.485l-.51-.51H22.392zm10.205 12.288h-9.694V37.996h9.694v11.267z" fill="#504B75"/><path d="M31.765 48.38l.17-.17v-8.04a.17.17 0 00-.34 0v3.422H23.91V39.22h5.47a.17.17 0 000-.34h-5.641l-.17.17v9.16l.17.17h8.026zm-7.855-4.448h7.685v4.109H23.91v-4.109zm26.57 33.973l.341-.34v-19.21l-.34-.34h-8.682l-.341.34v19.21l.34.34h8.682zm-8.34-19.21h7.998v18.53H42.14v-18.53z" fill="#504B75"/><path d="M43.382 62.553l-.257.256v1.814l.257.257h5.513l.257-.257V62.81l-.257-.256h-5.513zm5.257 1.815h-5v-1.302h5v1.302zm-8.309 3.838a.853.853 0 10-.003-1.706.853.853 0 00.003 1.706zm-.284-1.279a.514.514 0 01.708.146.507.507 0 01-.146.707.51.51 0 11-.562-.853zm19.697-29.82l-.51.51v12.287l.51.51h10.718l.51-.51V37.618l-.51-.51H59.743zM69.95 49.394h-9.694V38.128h9.694v11.266z" fill="#504B75"/><path d="M69.116 48.513v-.002l.17-.17v-8.04a.17.17 0 00-.34 0v3.421H61.26v-4.37h5.471a.17.17 0 000-.34h-5.642l-.17.17v9.16l.17.17h8.027zM61.26 44.06h7.687v4.109H61.26V44.06zm-19.92-6.953l-.511.51v12.287l.51.51h10.718l.51-.51V37.618l-.51-.51H41.339zm10.206 12.287h-9.694V38.128h9.694v11.266z" fill="#504B75"/><path d="M50.712 48.513v-.002l.17-.17v-8.04a.17.17 0 00-.34 0v3.421h-7.686v-4.37h5.47a.17.17 0 000-.34h-5.641l-.17.17v9.16l.17.17h8.027zm-7.856-4.452h7.685v4.109h-7.685v-4.11zM22.393 57.063l-.511.51V69.86l.51.51H33.11l.511-.51V57.574l-.51-.51H22.392zM32.598 69.35h-9.694V58.084h9.694v11.265z" fill="#504B75"/><path d="M31.765 68.468l.17-.17v-8.042a.17.17 0 00-.34 0v3.421H23.91v-4.37h5.47a.17.17 0 000-.34h-5.641l-.17.17v9.16l.17.17h8.026zm-7.855-4.45h7.685v4.108H23.91v-4.109zm46.404 5.445l.51-.51V56.666l-.51-.51H59.596l-.51.51v12.287l.51.51h10.718zM60.109 57.177h9.694v11.266h-9.694V57.177z" fill="#504B75"/><path d="M68.969 59.178a.17.17 0 00-.17.17v3.422h-7.686V58.4h5.472a.17.17 0 000-.34h-5.642l-.17.17v9.16l.17.17h8.026l.17-.17v-8.042a.17.17 0 00-.17-.17zm-.17 8.04h-7.686V63.11H68.8v4.109zM33.074 32.842l.51-.51v-12.29l-.51-.51H22.356l-.51.51V32.33l.51.512h10.718zM22.867 20.555h9.694v11.266h-9.694V20.555z" fill="#504B75"/><path d="M31.73 22.556a.17.17 0 00-.171.17v3.422h-7.687v-4.37h5.471a.17.17 0 000-.34h-5.642l-.17.17v9.16l.17.17h8.028l.17-.17v-8.041a.17.17 0 00-.17-.17zm-.171 8.042h-7.687V26.49h7.687v4.108zm38.864 2.375l.511-.51V20.176l-.51-.51H59.706l-.51.51v12.287l.51.51h10.716zM60.218 20.686h9.693v11.267h-9.693V20.686z" fill="#504B75"/><path d="M69.078 22.688a.17.17 0 00-.17.17v3.422h-7.686v-4.37h5.472a.17.17 0 000-.34h-5.642l-.17.17v9.16l.17.17h8.026l.17-.17v-8.04a.17.17 0 00-.17-.172zm-.17 8.04h-7.686V26.62h7.686v4.109zM52.02 32.973l.511-.51V20.176l-.51-.51H41.302l-.511.51v12.287l.51.51H52.02zM41.815 20.686h9.694v11.267h-9.694V20.686z" fill="#504B75"/><path d="M50.675 22.688a.17.17 0 00-.17.17v3.422h-7.687v-4.37h5.472a.17.17 0 000-.34h-5.642l-.17.17v9.16l.17.17h8.027l.17-.17v-8.04a.17.17 0 00-.17-.172zm-.168 8.04h-7.688V26.62h7.688v4.109zM37.862 7.39c.16.181.352.32.575.42.223.1.465.149.723.149a1.706 1.706 0 001.292-.568 1.95 1.95 0 00.382-.646 2.41 2.41 0 00.135-.824c0-.293-.045-.562-.136-.807a1.733 1.733 0 00-.38-.619 1.761 1.761 0 00-1.293-.534c-.257 0-.5.047-.723.142a1.698 1.698 0 00-.575.392 1.798 1.798 0 00-.374.619c-.09.245-.136.514-.136.807 0 .3.046.576.136.824.09.249.215.465.374.646zm.267-2.04a1 1 0 01.573-.62c.14-.06.292-.089.458-.089a1.1 1.1 0 01.803.33c.097.1.172.224.23.38.06.166.093.36.093.57 0 .221-.031.42-.095.592a1.24 1.24 0 01-.246.421 1.017 1.017 0 01-.785.343c-.163 0-.31-.03-.445-.089a.96.96 0 01-.342-.248 1.327 1.327 0 01-.243-.424 1.724 1.724 0 01-.096-.595c0-.21.031-.402.095-.571z" fill="#504B75"/></svg>