<svg width="94" height="94" fill="none" xmlns="http://www.w3.org/2000/svg"><path d="M58.428 36.81a.481.481 0 00.96 0v-7.434a.481.481 0 00-.96 0v7.434zm.961-9.647v-4.667a.481.481 0 00-.961 0v4.667a.48.48 0 00.96 0zm3.039 2.215v-7.041a.481.481 0 00-.96 0v7.04a.48.48 0 10.96 0zm-.961 10.582a.481.481 0 00.961 0v-8.094a.481.481 0 00-.96 0v8.094zm3.329-3.15a.481.481 0 00.961 0v-4.944a.481.481 0 00-.96 0v4.944zm.481-6.952a.48.48 0 00.48-.48v-6.882a.481.481 0 00-.96 0v6.882c0 .265.215.48.48.48zm3.52-3.88v-3.641a.481.481 0 00-.96 0v3.641a.48.48 0 00.96 0zm-.961 11.358a.481.481 0 00.961 0v-8.095a.481.481 0 00-.96 0v8.095z" fill="#504B75"/><path d="M93.52 81.552H74.24c8.846-2.217 14.596-8.93 14.596-17.822v-9.576c1.707-.123 3.062-1.537 3.062-3.274a3.301 3.301 0 00-3.298-3.298h-4.412V16.596a.64.64 0 00-.017-.15c-1.17-5.103-5.848-8.722-11.01-8.56-4.907.132-9.17 3.617-10.354 8.364H58.25a1.987 1.987 0 000 3.972h10.5a1.987 1.987 0 000-3.972h-4.524c1.153-3.994 4.781-6.906 8.97-7.019 4.516-.14 8.59 3.002 9.643 7.441v30.91H31.885v-1.24a.673.673 0 00-.673-.674H14.015a.673.673 0 00-.673.673v1.24H3.298A3.301 3.301 0 000 50.88c0 1.737 1.356 3.15 3.062 3.274v9.576c0 8.892 5.75 15.605 14.597 17.822H.672a.48.48 0 00-.48.48v3.609c0 .264.215.48.48.48H93.52a.48.48 0 00.48-.48v-3.609a.48.48 0 00-.48-.48zM68.75 17.596a.64.64 0 010 1.28H58.252a.64.64 0 010-1.28h10.499zM31.884 48.93H88.6c1.076 0 1.952.876 1.952 1.952a1.954 1.954 0 01-1.952 1.952.661.661 0 00-.308.084c-.043-.009-.083-.026-.129-.026h-55.94a.652.652 0 00-.34.104V48.93zm-17.196-1.913h15.851v17.002l-.012-.003H14.688v-17zm0 17.961h15.839l.012-.002v2.129H14.688v-2.127zM1.346 50.88c0-1.077.876-1.952 1.952-1.952h10.044v3.903H3.298a1.953 1.953 0 01-1.952-1.951zm3.062 12.85v-9.493h8.934v13.541c0 .372.301.673.673.673h17.197a.673.673 0 00.673-.673V54.133c.1.06.212.104.34.104H87.49v9.493c0 10.165-8.178 17.264-19.887 17.264H24.295c-11.71 0-19.887-7.1-19.887-17.264zm88.631 21.43H1.154v-2.646h91.885v2.646z" fill="#504B75"/></svg>