<svg width="26" height="26" fill="none" xmlns="http://www.w3.org/2000/svg"><path d="M23.833 7.008V1.3c0-.717-.583-1.3-1.3-1.3H3.467c-.717 0-1.3.583-1.3 1.3v5.708A1.3 1.3 0 001.3 8.233V24.7c0 .717.583 1.3 1.3 1.3h20.8c.717 0 1.3-.583 1.3-1.3V8.233c0-.564-.362-1.046-.867-1.225zM3.033 1.3c0-.24.194-.433.434-.433h19.066c.24 0 .434.194.434.433v5.633H22.1V2.6a.868.868 0 00-.867-.867H4.767A.868.868 0 003.9 2.6v4.333h-.867V1.3zm11.938 5.633c-.322-.895-.315-1.881.026-2.679a8.051 8.051 0 014.67 0c.342.871.352 1.858.033 2.68h-4.729zm5.472-3.073l-.059-.134a.433.433 0 00-.262-.238 8.92 8.92 0 00-5.578 0 .432.432 0 00-.262.24l-.056.129c-.417.928-.473 2.023-.166 3.076h-1.678a4.692 4.692 0 00-.172-3.073l-.059-.134a.433.433 0 00-.262-.238 8.92 8.92 0 00-5.578 0 .432.432 0 00-.263.24l-.056.129c-.416.928-.472 2.023-.165 3.076h-1.06V2.6h16.466v4.333h-.618a4.693 4.693 0 00-.172-3.073zM6.738 6.933c-.322-.895-.315-1.881.026-2.679a8.05 8.05 0 014.67 0c.342.871.352 1.858.033 2.68H6.738zm-4.571 1.3c0-.239.194-.433.433-.433h20.8c.24 0 .433.194.433.433V10.4H2.167V8.233zM23.833 24.7c0 .24-.194.433-.433.433H2.6a.433.433 0 01-.433-.433V11.267h21.666V24.7z" fill="#564A75"/></svg>