<svg width="19" height="20" fill="none" xmlns="http://www.w3.org/2000/svg"><g clip-path="url(#clip0)" fill="#474C65"><path d="M13.497.662H5.01A5.015 5.015 0 000 5.672v8.487a5.015 5.015 0 005.01 5.01h8.487a5.015 5.015 0 005.01-5.01V5.672a5.015 5.015 0 00-5.01-5.01zM9.253 14.976c-2.79 0-5.06-2.27-5.06-5.06 0-2.79 2.27-5.06 5.06-5.06 2.79 0 5.06 2.27 5.06 5.06 0 2.79-2.27 5.06-5.06 5.06zm5.181-8.928c-.824 0-1.495-.67-1.495-1.495a1.496 1.496 0 012.991 0c0 .825-.671 1.495-1.495 1.495z"/><path d="M9.253 5.94a3.98 3.98 0 00-3.975 3.976 3.98 3.98 0 003.975 3.975 3.98 3.98 0 003.975-3.975A3.98 3.98 0 009.253 5.94zm5.181-1.796a.41.41 0 10.001.821.41.41 0 000-.821z"/></g><defs><clipPath id="clip0"><path fill="#fff" transform="translate(0 .662)" d="M0 0h18.506v18.506H0z"/></clipPath></defs></svg>