<svg width="23" height="23" fill="none" xmlns="http://www.w3.org/2000/svg"><path d="M10.99 14.39a.771.771 0 001.02 0c.185-.164 4.522-4.03 4.522-8.039A5.039 5.039 0 0011.5 1.317a5.039 5.039 0 00-5.032 5.034c0 4.01 4.337 7.875 4.522 8.038zm.51-9.354c.72 0 1.304.589 1.304 1.315A1.31 1.31 0 0111.5 7.666a1.31 1.31 0 01-1.305-1.315A1.31 1.31 0 0111.5 5.036z" fill="#4A435D"/><path d="M21.17 14.387l-.584-2.043a.772.772 0 00-.742-.56h-4.16a19.265 19.265 0 01-2.96 3.416 1.851 1.851 0 01-2.448 0 19.267 19.267 0 01-2.96-3.416h-4.16a.772.772 0 00-.742.56l-.695 2.435 15.53 2.844 3.92-3.236zm1.8 6.313l-1.489-5.22-7.389 6.203h8.136a.772.772 0 00.742-.983zM3.779 16.254l-2.358-.432L.03 20.7a.772.772 0 00.742.984h3.007v-5.429zm1.081.198v5.231h7.552l3.762-3.158L4.86 16.452z" fill="#4A435D"/></svg>