<svg width="32" height="32" fill="none" xmlns="http://www.w3.org/2000/svg"><g clip-path="url(#clip0)"><path d="M31.716 23.033c-.085-.143-.614-1.293-3.161-3.656-2.666-2.476-2.308-2.074.903-6.353 1.956-2.607 2.738-4.198 2.493-4.879-.233-.648-1.671-.477-1.671-.477l-4.783.028s-.354-.048-.619.11c-.256.154-.422.512-.422.512s-.758 2.018-1.768 3.733c-2.131 3.619-2.985 3.81-3.333 3.585-.81-.523-.607-2.105-.607-3.227 0-3.508.531-4.97-1.036-5.348-.522-.125-.904-.209-2.235-.223-1.707-.018-3.153.006-3.97.406-.546.267-.966.862-.71.895.317.042 1.033.193 1.413.71.492.667.474 2.167.474 2.167s.283 4.129-.659 4.642c-.646.352-1.532-.366-3.432-3.65-.973-1.682-1.709-3.542-1.709-3.542s-.141-.347-.394-.532c-.306-.224-.736-.296-.736-.296l-4.548.028s-.682.02-.933.316c-.223.265-.018.81-.018.81s3.561 8.33 7.592 12.53c3.699 3.85 7.897 3.598 7.897 3.598h1.902s.575-.064.867-.38c.271-.29.261-.836.261-.836s-.038-2.553 1.148-2.929c1.168-.37 2.668 2.467 4.258 3.56 1.201.825 2.115.644 2.115.644l4.252-.06s2.224-.137 1.17-1.886z" fill="#474C65"/></g><defs><clipPath id="clip0"><path fill="#fff" transform="translate(.169)" d="M0 0h31.831v31.831H0z"/></clipPath></defs></svg>