<svg width="17" height="18" fill="none" xmlns="http://www.w3.org/2000/svg"><path d="M8.385.965h-.004C3.778.965.034 4.704.034 9.302c0 1.824.589 3.514 1.59 4.886l-1.04 3.097 3.208-1.024a8.285 8.285 0 004.593 1.378c4.603 0 8.347-3.74 8.347-8.337 0-4.597-3.744-8.337-8.347-8.337z" fill="#4CAF50"/><path d="M13.243 12.737c-.202.568-1 1.039-1.639 1.177-.436.092-1.005.166-2.924-.628-2.453-1.015-4.033-3.504-4.156-3.666-.118-.161-.992-1.318-.992-2.515 0-1.196.609-1.778.854-2.029.201-.205.534-.299.854-.299.103 0 .196.006.28.01.244.01.368.025.53.411.2.485.691 1.681.75 1.804.06.123.119.29.035.452-.078.166-.147.24-.27.382-.123.142-.24.25-.363.402-.113.133-.24.274-.098.52.142.239.632 1.038 1.354 1.68.932.829 1.688 1.093 1.958 1.206.201.083.441.063.589-.093.186-.201.417-.534.652-.863.167-.235.378-.264.599-.181.225.078 1.418.667 1.663.789.246.123.407.181.467.284.058.104.058.588-.143 1.157z" fill="#FAFAFA"/></svg>