<svg width="26" height="26" fill="none" xmlns="http://www.w3.org/2000/svg"><path d="M24.7 1.733h-3.033v-1.3A.433.433 0 0021.233 0H18.2a.433.433 0 00-.433.433v1.3H8.233v-1.3A.433.433 0 007.8 0H4.767a.433.433 0 00-.434.433v1.3H1.3a.433.433 0 00-.433.434v23.4c0 .24.193.433.433.433h23.4c.24 0 .433-.194.433-.433v-23.4a.433.433 0 00-.433-.434zM18.633.867H20.8v2.6h-2.167v-2.6zM5.2.867h2.167v2.6H5.2v-2.6zM1.733 2.6h2.6v1.3c0 .24.194.433.434.433H7.8c.24 0 .433-.193.433-.433V2.6h9.534v1.3c0 .24.193.433.433.433h3.033c.24 0 .434-.193.434-.433V2.6h2.6v3.9H1.733V2.6zm0 22.533V7.367h22.534v17.766H1.733z" fill="#564A75"/><path d="M16.467 9.967h-11.7v12.567h16.466V9.966h-4.766zm-3.034.867h3.034v3.033h-3.034v-3.034zm3.034 6.933h-3.034v-3.034h3.034v3.034zm-6.934-3.034h3.034v3.034H9.533v-3.034zm0-3.9h3.034v3.034H9.533v-3.034zm-3.9 0h3.034v3.034H5.633v-3.034zm0 3.9h3.034v3.034H5.633v-3.034zm3.034 6.934H5.633v-3.034h3.034v3.034zm3.9 0H9.533v-3.034h3.034v3.034zm3.9 0h-3.034v-3.034h3.034v3.034zm3.9 0h-3.034v-3.034h3.034v3.034zm0-3.9h-3.034v-3.034h3.034v3.034zm0-6.933v3.033h-3.034v-3.034h3.034z" fill="#564A75"/></svg>