<svg width="12" height="357" fill="none" xmlns="http://www.w3.org/2000/svg"><g opacity=".88"><mask id="mask0" maskUnits="userSpaceOnUse" x="0" y="0" width="12" height="357"><path fill="#C4C4C4" d="M0 0h12v357H0z"/></mask><g mask="url(#mask0)" stroke="#645F74" stroke-width=".3"><path transform="matrix(.38474 -.92302 .47764 .87855 9.707 247.381)" d="M0-.15h74.208"/><path transform="matrix(.38474 -.92302 .47764 .87855 5.083 112.031)" d="M0-.15h74.208"/><path transform="matrix(.38474 -.92302 .47764 .87855 4.49 237.785)" d="M0-.15h74.208"/><path transform="matrix(.38474 -.92302 .47764 .87855 -.133 102.435)" d="M0-.15h74.208"/><path transform="matrix(.38474 -.92302 .47764 .87855 9.112 372.843)" d="M0-.15h74.208"/><path transform="matrix(.38474 -.92302 .47764 .87855 6.229 240.983)" d="M0-.15h74.208"/><path transform="matrix(.38474 -.92302 .47764 .87855 1.605 105.634)" d="M0-.15h74.208"/><path transform="matrix(.38474 -.92302 .47764 .87855 10.852 376.042)" d="M0-.15h74.208"/><path transform="matrix(.38474 -.92302 .47764 .87855 1.012 231.388)" d="M0-.15h74.208"/><path transform="matrix(.38474 -.92302 .47764 .87855 -3.611 96.038)" d="M0-.15h74.208"/><path transform="matrix(.38474 -.92302 .47764 .87855 5.635 366.445)" d="M0-.15h74.208"/><path transform="matrix(.38474 -.92302 .47764 .87855 7.968 244.184)" d="M0-.15h74.208"/><path transform="matrix(.38474 -.92302 .47764 .87855 3.345 108.833)" d="M0-.15h74.208"/><path transform="matrix(.38474 -.92302 .47764 .87855 2.75 234.586)" d="M0-.15h74.208"/><path transform="matrix(.38474 -.92302 .47764 .87855 -1.873 99.237)" d="M0-.15h74.208"/><path transform="matrix(.38474 -.92302 .47764 .87855 7.373 369.645)" d="M0-.15h74.208"/><path transform="matrix(.38474 -.92302 .47764 .87855 12.04 124.825)" d="M0-.15h74.208"/><path transform="matrix(.38474 -.92302 .47764 .87855 10.3 121.627)" d="M0-.15h74.208"/><path transform="matrix(.38474 -.92302 .47764 .87855 8.562 118.429)" d="M0-.15h74.208"/><path transform="matrix(.38474 -.92302 .47764 .87855 11.446 250.579)" d="M0-.15h74.208"/><path transform="matrix(.38474 -.92302 .47764 .87855 6.823 115.231)" d="M0-.15h74.208"/><path transform="matrix(-.47764 -.87855 .38474 -.92302 22.884 24.345)" d="M0-.15h68.266"/><path transform="matrix(-.47764 -.87855 .38474 -.92302 32.13 294.752)" d="M0-.15h68.266"/><path transform="matrix(-.47764 -.87855 .38474 -.92302 27.506 159.402)" d="M0-.15h68.266"/><path transform="matrix(.38474 -.92302 .47764 .87855 -25.317 140.758)" d="M0-.15h74.208"/><path transform="matrix(.38474 -.92302 .47764 .87855 -16.07 411.163)" d="M0-.15h74.208"/><path transform="matrix(.38474 -.92302 .47764 .87855 -20.694 275.814)" d="M0-.15h74.208"/><path transform="matrix(-.47764 -.87855 .38474 -.92302 12.225 49.916)" d="M0-.15h68.266"/><path transform="matrix(-.47764 -.87855 .38474 -.92302 21.47 320.323)" d="M0-.15h68.266"/><path transform="matrix(-.47764 -.87855 .38474 -.92302 16.848 184.975)" d="M0-.15h68.266"/><path transform="matrix(.38474 -.92302 .47764 .87855 -28.244 388.772)" d="M0-.15h74.208"/><path transform="matrix(-.47764 -.87855 .38474 -.92302 7.656 60.875)" d="M0-.15h68.266"/><path transform="matrix(-.47764 -.87855 .38474 -.92302 16.902 331.282)" d="M0-.15h68.266"/><path transform="matrix(-.47764 -.87855 .38474 -.92302 12.28 195.933)" d="M0-.15h68.266"/><path transform="matrix(-.47764 -.87855 .38474 -.92302 21.36 27.998)" d="M0-.15h68.266"/><path transform="matrix(-.47764 -.87855 .38474 -.92302 30.607 298.406)" d="M0-.15h68.266"/><path transform="matrix(-.47764 -.87855 .38474 -.92302 25.984 163.056)" d="M0-.15h68.266"/><path transform="matrix(.38474 -.92302 .47764 .87855 -27.056 137.556)" d="M0-.15h74.208"/><path transform="matrix(.38474 -.92302 .47764 .87855 -17.81 407.965)" d="M0-.15h74.208"/><path transform="matrix(.38474 -.92302 .47764 .87855 -22.433 272.615)" d="M0-.15h74.208"/><path transform="matrix(-.47764 -.87855 .38474 -.92302 19.838 31.65)" d="M0-.15h68.266"/><path transform="matrix(-.47764 -.87855 .38474 -.92302 29.084 302.059)" d="M0-.15h68.266"/><path transform="matrix(-.47764 -.87855 .38474 -.92302 24.46 166.709)" d="M0-.15h68.266"/><path transform="matrix(.38474 -.92302 .47764 .87855 -19.549 404.766)" d="M0-.15h74.208"/><path transform="matrix(.38474 -.92302 .47764 .87855 -24.172 269.416)" d="M0-.15h74.208"/><path transform="matrix(-.47764 -.87855 .38474 -.92302 9.18 57.222)" d="M0-.15h68.266"/><path transform="matrix(-.47764 -.87855 .38474 -.92302 18.425 327.63)" d="M0-.15h68.266"/><path transform="matrix(-.47764 -.87855 .38474 -.92302 13.802 192.279)" d="M0-.15h68.266"/><path transform="matrix(-.47764 -.87855 .38474 -.92302 4.61 68.183)" d="M0-.15h68.266"/><path transform="matrix(-.47764 -.87855 .38474 -.92302 13.857 338.588)" d="M0-.15h68.266"/><path transform="matrix(-.47764 -.87855 .38474 -.92302 9.234 203.239)" d="M0-.15h68.266"/><path transform="matrix(-.47764 -.87855 .38474 -.92302 10.702 53.57)" d="M0-.15h68.266"/><path transform="matrix(-.47764 -.87855 .38474 -.92302 19.948 323.978)" d="M0-.15h68.266"/><path transform="matrix(-.47764 -.87855 .38474 -.92302 15.325 188.626)" d="M0-.15h68.266"/><path transform="matrix(-.47764 -.87855 .38474 -.92302 6.134 64.53)" d="M0-.15h68.266"/><path transform="matrix(-.47764 -.87855 .38474 -.92302 15.38 334.935)" d="M0-.15h68.266"/><path transform="matrix(-.47764 -.87855 .38474 -.92302 10.757 199.586)" d="M0-.15h68.266"/><path transform="matrix(-.47764 -.87855 .38474 -.92302 18.315 35.304)" d="M0-.15h68.266"/><path transform="matrix(-.47764 -.87855 .38474 -.92302 27.561 305.711)" d="M0-.15h68.266"/><path transform="matrix(-.47764 -.87855 .38474 -.92302 22.939 170.362)" d="M0-.15h68.266"/><path transform="matrix(.38474 -.92302 .47764 .87855 -21.288 401.567)" d="M0-.15h74.208"/><path transform="matrix(.38474 -.92302 .47764 .87855 -25.911 266.219)" d="M0-.15h74.208"/><path transform="matrix(-.47764 -.87855 .38474 -.92302 16.793 38.957)" d="M0-.15h68.266"/><path transform="matrix(-.47764 -.87855 .38474 -.92302 26.039 309.363)" d="M0-.15h68.266"/><path transform="matrix(-.47764 -.87855 .38474 -.92302 21.416 174.015)" d="M0-.15h68.266"/><path transform="matrix(.38474 -.92302 .47764 .87855 -23.027 398.368)" d="M0-.15h74.208"/><path transform="matrix(.38474 -.92302 .47764 .87855 -27.65 263.021)" d="M0-.15h74.208"/><path transform="matrix(-.47764 -.87855 .38474 -.92302 15.27 42.608)" d="M0-.15h68.266"/><path transform="matrix(-.47764 -.87855 .38474 -.92302 24.516 313.018)" d="M0-.15h68.266"/><path transform="matrix(-.47764 -.87855 .38474 -.92302 19.893 177.667)" d="M0-.15h68.266"/><path transform="matrix(.38474 -.92302 .47764 .87855 -24.766 395.171)" d="M0-.15h74.208"/><path transform="matrix(-.47764 -.87855 .38474 -.92302 13.747 46.262)" d="M0-.15h68.266"/><path transform="matrix(-.47764 -.87855 .38474 -.92302 22.993 316.671)" d="M0-.15h68.266"/><path transform="matrix(-.47764 -.87855 .38474 -.92302 18.37 181.321)" d="M0-.15h68.266"/><path transform="matrix(.38474 -.92302 .47764 .87855 -26.505 391.971)" d="M0-.15h74.208"/></g></g></svg>